<?xml version="1.0" encoding="UTF-8"?>
<svg viewBox="0 0 128 128" xmlns="http://www.w3.org/2000/svg">
 <defs>
  <linearGradient id="a" x1="1.3549" x2="-.17572" y1=".38366" y2=".58755" gradientTransform="matrix(-1 0 0 1 132.33 .90369)">
   <stop stop-color="#fff" offset="0"/>
   <stop stop-color="#fffffc" offset="1"/>
  </linearGradient>
 </defs>
 <path d="m33.909 74.093l-15.911 23.748c-6.77 10.393-5.8711 24.303 12.586 22.798 3.7969-0.31 61.269 0 61.269 0 24.09 2.064 21.268-13.523 15.199-21.373l-16.386-24.935-56.757-0.2375z" fill="#f0f"/>
 <path d="m81.812 4.4062l-39.781 0.0312c-0.804 0.00655-1.537 0.47566-1.8438 1.2188-0.3068 0.74309-0.1277 1.6158 0.4375 2.1875 3.051 2.9958 4.1774 5.3392 4.6875 7.9688s0.3074 5.6854 0.3438 9.6563l0.2187 23.938-31.469 47.125c-0.021799 0.030594-0.042599 0.061897-0.0625 0.093697-4.1009 6.837-4.909 13.832-2.6875 19.219 2.2074 5.353 7.6032 8.828 14.531 8.469 0.0438-0.003006 0.0811 0.001999 0.125 0l72.938 0.062c7.443-0.030998 13.086-3.728 15-9.406 1.9-5.637 0.2-12.741-5.281-19.719l-0.094-0.1562-29.781-45.625-0.5625-23.969c-0.001106-0.1161 0.001297-0.198 0-0.3125 0-0.020201 5.95e-4 -0.042299 0-0.0625-0.047707-3.7696-0.2583-6.7353 0.1875-9.2812 0.4619-2.6386 1.5355-4.9803 4.5312-8.0313 0.5691-0.5758 0.721-1.4416 0.4063-2.1875-0.3148-0.74591-1.0342-1.2248-1.8438-1.2188zm-4 4c-1.5346 2.2676-2.6397 4.5136-3.0312 6.75-0.45721 2.6109-0.35641 5.2352-0.2813 8.0312h-8.9062c-0.072906-4e-3 -0.1459-4e-3 -0.2188 0-1.1046 0.0604-1.9354 0.9892-1.875 2.0938 0.060402 1.1045 0.9892 1.9666 2.0938 1.9062h8.9687l0.375 15.25h-9.3437c-0.072906-0.004002-0.1459-0.004002-0.2188 0-1.1046 0.060398-1.9354 0.9892-1.875 2.0938 0.060402 1.1045 0.9892 1.9666 2.0938 1.9062h9.4375l0.0937 3.7188c0.007896 0.3658 0.116 0.7225 0.3125 1.0312l7.125 10.906h-9.5937c-0.072906-0.003998-0.1459-0.003998-0.2188 0-1.1046 0.060402-1.9354 0.9891-1.875 2.0937 0.060402 1.1046 0.9892 1.9667 2.0938 1.9063h10.906c0.3984 0.0056 0.7694-0.1052 1.0938-0.3125l7.8437 12.031h-9.2187c-0.0625-0.002899-0.12511-0.002899-0.1875 0-1.1046 0.051804-1.9581 0.9892-1.9063 2.0938 0.051804 1.1045 0.9892 1.958 2.0938 1.9062h10.906c0.2876 0.004097 0.5572-0.077003 0.8125-0.1875l7.5935 11.625h-8.656c-0.0625-0.002899-0.125-0.002899-0.1875 0-1.1046 0.051804-1.958 0.9892-1.9062 2.0938 0.051697 1.1045 0.9891 1.958 2.0937 1.9062h10.906c0.106 0.001503 0.21-0.016403 0.313-0.031197l0.156 0.2187c0.028999 0.053497 0.059998 0.1056 0.094002 0.1563 5.003 6.3042 6.096 12.099 4.75 16.094-1.347 3.994-5.04 6.661-11.25 6.687l-73.032-0.062c-0.0417-0.002007-0.0833-0.002007-0.125 0-5.64 0.33099-9.1027-2.082-10.719-6-1.6161-3.919-1.1628-9.623 2.4375-15.626l31.75-47.594c0.2247-0.3321 0.3445-0.7241 0.3437-1.125l-0.2187-24.531c-0.034698-3.7939 0.2104-7.0349-0.4375-10.375-0.4282-2.2073-1.5465-4.4081-3.0938-6.625l31.688-0.0312z"/>
 <path d="m42.036 6.4153c6.5334 6.4149 5.5473 11.264 5.6183 19.029l0.2243 24.521-31.823 47.67c-7.7011 12.84-2.4913 25.401 10.14 24.66l73.043 0.073c13.653-0.056999 18.639-12.708 8.058-26.04l-30.186-46.245-0.5681-24.561c-0.070999-7.7647-1.1457-12.595 5.2693-19.129l-39.775 0.0203z"/>
 <path d="m42.106 6.4153c6.5488 6.4149 5.5604 11.264 5.6316 19.029l0.2248 24.521-31.898 47.67c-7.7192 12.84-2.4972 25.401 10.164 24.66l73.216 0.073c13.686-0.056999 18.683-12.708 8.077-26.04l-30.258-46.245-0.5695-24.561c-0.071205-7.7647-1.1484-12.595 5.2817-19.129l-39.869 0.0203z"/>
 <path d="m28.685 117.08c-7.0264 0.65401-12.597-4.221-8.0742-12.824l32.297-52.245-0.2374-34.672c0.0224-2.3748-0.2794-4.7495-2.1373-7.1243 4.0667 1.9163 7.7496 3.9606 8.0742 7.1243l0.4749 36.571c0.1067 8.2147-12.649 25.194-18.261 35.119-7.6386 13.509-17.748 23.529-12.136 28.05z" opacity=".665"/>
 <path d="m99.241 116.64c7.027 0.654 9.747-4.458 5.225-13.061l-32.297-52.245 0.2375-34.672c-0.022499-2.3748 0.2794-4.7495 2.1373-7.1243-4.0667 1.9163-5.1374 3.9606-5.4619 7.1243l-0.2375 36.334c-0.053703 8.2152 13.599 24.481 19.211 34.406 7.639 13.509 16.798 24.716 11.186 29.237z" fill="url(#a)"/>
</svg>
